<svg width="69" height="66" viewBox="0 0 69 66" fill="none" xmlns="http://www.w3.org/2000/svg">
<path d="M67.3516 60.0428V55.3252V13.3779C67.3516 12.0026 66.6639 11.3149 65.2886 11.3149H58.412M6.83739 25.0681V13.3779C6.83739 12.0026 7.52505 11.3149 8.90037 11.3149H48.0971M6.83739 25.0681L9.56859 22.3369C9.95911 21.9464 10.5923 21.9464 10.9828 22.3369L15.0893 26.4435M6.83739 25.0681L1.36303 30.5425C0.969592 30.9359 0.972955 31.5749 1.37051 31.9641L6.83739 37.3171M6.83739 37.3171V53.2623C6.83739 54.6376 7.52505 55.3252 8.90037 55.3252H25.2287M6.83739 37.3171L25.2287 55.3252M25.2287 55.3252L32.9492 62.8849C33.3408 63.2684 33.9683 63.2651 34.3559 62.8775L42.5958 54.6376L37.3883 49.2681M48.0971 11.3149L57.0636 1.70796C57.4319 1.31334 58.0469 1.28224 58.4531 1.6377L62.473 5.15512C62.8887 5.51881 62.9308 6.15057 62.5671 6.56621L58.412 11.3149M48.0971 11.3149L39.1575 20.9422M58.412 11.3149L44.6588 26.4435M44.6588 26.4435L36.4068 29.8818M44.6588 26.4435L39.1575 20.9422M36.4068 29.8818L39.1575 20.9422M36.4068 29.8818H52.223M15.0893 26.4435L10.4046 31.2571M15.0893 26.4435L20.7196 32.1935M20.7196 32.1935L15.777 36.7584M20.7196 32.1935L26.536 38.1337M26.536 38.1337L21.9659 42.2597M26.536 38.1337L32.1808 43.8986M32.1808 43.8986L28.1549 47.761M32.1808 43.8986L37.3883 49.2681M37.3883 49.2681L33.6562 53.2623" stroke="#151716" stroke-width="2" stroke-linecap="round"/>
<path d="M57.0371 29.8818H60.4754" stroke="#151716" stroke-width="2" stroke-linecap="round"/>
<path d="M63.5937 64.4829C68.7812 64.4829 68.4274 55.3115 63.5937 55.3115H56.6034V64.4829H63.5937Z" fill="#CACACA"/>
<path d="M41.9082 55.3115C47.3319 55.3115 52.9768 55.3115 56.6034 55.3115M56.6034 55.3115C58.7581 55.3115 62.0734 55.3115 63.5937 55.3115C68.4274 55.3115 68.7812 64.4829 63.5937 64.4829H56.6034V55.3115Z" stroke="#151716" stroke-width="2"/>
</svg>
