<svg width="118" height="32" viewBox="0 0 118 32" fill="none" xmlns="http://www.w3.org/2000/svg">
<path d="M1.08398 10.323L10.7129 1.04492C8.52068 1.85144 6.52986 3.09476 4.87059 4.69356C3.21133 6.29237 1.921 8.21065 1.08398 10.323Z" fill="#EC7133"/>
<path d="M16.6233 0C15.838 0.00114132 15.0538 0.0549297 14.2763 0.160976L0.168075 13.7561C0.0565917 14.5048 0.000425308 15.2602 0 16.0166C0 16.1639 0.00708751 16.3093 0.0111375 16.4566L17.0799 0.0107317C16.928 0.00682927 16.7761 0 16.6233 0Z" fill="#EC7133"/>
<path d="M21.6199 0.737309C20.9214 0.526338 20.209 0.360763 19.4875 0.241699L0.25 18.7783C0.373679 19.4735 0.545514 20.1599 0.764351 20.8329L21.6199 0.737309Z" fill="#EC7133"/>
<path d="M25.2602 2.32971C24.7016 2.00428 24.1235 1.71108 23.5289 1.45166L1.50391 22.6712C1.77271 23.244 2.07701 23.8008 2.41516 24.3385L25.2602 2.32971Z" fill="#EC7133"/>
<path d="M28.2353 4.56183C27.7866 4.14049 27.3133 3.74408 26.8178 3.37451L3.50195 25.8448C3.8861 26.322 4.29783 26.778 4.73518 27.2106L28.2353 4.56183Z" fill="#EC7133"/>
<path d="M30.6139 7.3716C30.2716 6.85896 29.8997 6.36518 29.5001 5.89258L6.11133 28.4292C6.60173 28.8147 7.11455 29.173 7.64729 29.5023L30.6139 7.3716Z" fill="#EC7133"/>
<path d="M32.3398 10.8068C32.121 10.1905 31.863 9.58769 31.5672 9.00195L9.3418 30.4176C9.9503 30.702 10.5762 30.9506 11.2159 31.162L32.3398 10.8068Z" fill="#EC7133"/>
<path d="M33.2099 15.0671C33.1648 14.3079 33.0633 13.5528 32.9061 12.8076L13.293 31.7071C14.0657 31.8584 14.8487 31.9563 15.6359 31.9998L33.2099 15.0671Z" fill="#EC7133"/>
<path d="M32.4561 20.8958C32.8042 19.8471 33.0387 18.7666 33.1558 17.6714L18.3398 31.9475C19.4765 31.8351 20.598 31.6091 21.6862 31.2733L32.4561 20.8958Z" fill="#EC7133"/>
<path d="M48.7842 22.478C47.9016 22.4828 47.0267 22.3188 46.2103 21.9956C45.3939 21.6723 44.6522 21.1961 44.0282 20.5947C43.4041 19.9933 42.9101 19.2785 42.5747 18.4918C42.2393 17.7052 42.0692 16.8622 42.0743 16.0117C42.0743 12.4019 45.0359 9.49463 48.7842 9.49463C52.5325 9.49463 55.495 12.4 55.495 16.0117C55.5 16.8622 55.3298 17.7052 54.9943 18.4919C54.6588 19.2786 54.1647 19.9934 53.5405 20.5948C52.9164 21.1962 52.1746 21.6723 51.3582 21.9956C50.5417 22.3188 49.6668 22.4828 48.7842 22.478ZM48.7842 11.4322C46.095 11.4322 44.2472 13.4995 44.2472 15.9863C44.2472 18.4985 46.095 20.5405 48.7842 20.5405C51.4734 20.5405 53.3212 18.4985 53.3212 15.9863C53.3212 13.4995 51.4734 11.4322 48.7842 11.4322Z" fill="#EC7133"/>
<path d="M64.2688 22.1374L61.3629 16.9803H60.4921V22.1374H58.3203V9.83398H60.7098C63.155 9.83398 65.7905 10.4369 65.7905 13.394C65.7905 15.1228 64.6495 16.1423 63.481 16.5618L66.877 22.1374H64.2688ZM60.7098 11.7715H60.4921V15.1481L60.7372 15.1228C62.3946 15.1228 63.5357 14.8867 63.5357 13.473C63.5084 11.955 62.4493 11.7715 60.7098 11.7715Z" fill="#EC7133"/>
<path d="M77.1175 22.1374L75.9238 19.4145H70.7884L69.62 22.1374H67.2305L72.9896 9.83398H73.75L79.4817 22.1374H77.1175ZM73.3419 13.5257H73.2883L71.4951 17.7657H75.1897L73.3419 13.5257Z" fill="#EC7133"/>
<path d="M91.7317 22.1374L83.6904 13.7872V22.1374H81.5176V9.83398H82.604L90.6179 18.2369V9.83398H92.7918V22.1374H91.7317Z" fill="#EC7133"/>
<path d="M102.161 22.478C98.3572 22.478 95.6133 19.4673 95.6133 16.039C95.6133 12.5054 98.3572 9.49561 102.269 9.49561C104.633 9.49561 106.29 10.4634 107.947 12.401L106.317 13.7883C105.04 12.1649 103.981 11.4332 102.242 11.4332C99.5792 11.4332 97.8408 13.6049 97.8681 16.039C97.8681 18.3951 99.7423 20.5151 102.161 20.5151C104.085 20.5151 105.746 19.2068 105.99 17.5317H102.244V15.5932H108.383C108.384 19.52 106.32 22.478 102.161 22.478Z" fill="#EC7133"/>
<path d="M111.236 22.1374V9.83398H118.001V11.7715H113.41V14.6008H118.001V16.5384H113.41V20.2028H118.001V22.1403L111.236 22.1374Z" fill="#EC7133"/>
</svg>
