<svg aria-hidden="true" style="position: absolute; width: 0; height: 0; overflow: hidden;" version="1.1" xmlns="http://www.w3.org/2000/svg" xmlns:xlink="http://www.w3.org/1999/xlink">
<defs>

<symbol id="icon-burger" viewBox="0 0 45 32">
<path fill="#716f6f" style="fill: var(--color1, #716f6f)" d="M0 0h45.333v5.333h-45.333v-5.333zM0 13.333h45.333v5.333h-45.333v-5.333zM34.667 26.667h-34.667v5.333h34.667v-5.333z"></path>
</symbol>

<symbol id="icon-logo" viewBox="0 0 118 32">
<path fill="#ec7133" style="fill: var(--color2, #ec7133)" d="M1.084 10.323l9.629-9.278c-2.192 0.807-4.183 2.050-5.842 3.649s-2.95 3.517-3.787 5.629z"></path>
<path fill="#ec7133" style="fill: var(--color2, #ec7133)" d="M16.623 0c-0.785 0.001-1.569 0.055-2.347 0.161l-14.108 13.595c-0.111 0.749-0.168 1.504-0.168 2.26 0 0.147 0.007 0.293 0.011 0.44l17.069-16.446c-0.152-0.004-0.304-0.011-0.457-0.011z"></path>
<path fill="#ec7133" style="fill: var(--color2, #ec7133)" d="M21.62 0.737c-0.698-0.211-1.411-0.377-2.132-0.496l-19.238 18.537c0.124 0.695 0.295 1.382 0.514 2.055l20.856-20.096z"></path>
<path fill="#ec7133" style="fill: var(--color2, #ec7133)" d="M25.26 2.33c-0.559-0.325-1.137-0.619-1.731-0.878l-22.025 21.22c0.269 0.573 0.573 1.13 0.911 1.667l22.845-22.009z"></path>
<path fill="#ec7133" style="fill: var(--color2, #ec7133)" d="M28.235 4.562c-0.449-0.421-0.922-0.818-1.418-1.187l-23.316 22.47c0.384 0.477 0.796 0.933 1.233 1.366l23.5-22.649z"></path>
<path fill="#ec7133" style="fill: var(--color2, #ec7133)" d="M30.614 7.372c-0.342-0.513-0.714-1.006-1.114-1.479l-23.389 22.537c0.49 0.386 1.003 0.744 1.536 1.073l22.967-22.131z"></path>
<path fill="#ec7133" style="fill: var(--color2, #ec7133)" d="M32.34 10.807c-0.219-0.616-0.477-1.219-0.773-1.805l-22.225 21.416c0.608 0.284 1.234 0.533 1.874 0.744l21.124-20.355z"></path>
<path fill="#ec7133" style="fill: var(--color2, #ec7133)" d="M33.21 15.067c-0.045-0.759-0.147-1.514-0.304-2.26l-19.613 18.899c0.773 0.151 1.556 0.249 2.343 0.293l17.574-16.933z"></path>
<path fill="#ec7133" style="fill: var(--color2, #ec7133)" d="M32.456 20.896c0.348-1.049 0.583-2.129 0.7-3.224l-14.816 14.276c1.137-0.112 2.258-0.338 3.346-0.674l10.77-10.378z"></path>
<path fill="#ec7133" style="fill: var(--color2, #ec7133)" d="M48.784 22.478c-0.883 0.005-1.758-0.159-2.574-0.482s-1.558-0.799-2.182-1.401c-0.624-0.601-1.118-1.316-1.453-2.103s-0.505-1.63-0.5-2.48c0-3.61 2.962-6.517 6.71-6.517s6.711 2.905 6.711 6.517c0.005 0.851-0.165 1.694-0.501 2.48s-0.83 1.502-1.454 2.103c-0.624 0.601-1.366 1.078-2.182 1.401s-1.691 0.487-2.574 0.482zM48.784 11.432c-2.689 0-4.537 2.067-4.537 4.554 0 2.512 1.848 4.554 4.537 4.554s4.537-2.042 4.537-4.554c0-2.487-1.848-4.554-4.537-4.554z"></path>
<path fill="#ec7133" style="fill: var(--color2, #ec7133)" d="M64.269 22.137l-2.906-5.157h-0.871v5.157h-2.172v-12.303h2.389c2.445 0 5.081 0.603 5.081 3.56 0 1.729-1.141 2.748-2.309 3.168l3.396 5.576h-2.608zM60.71 11.771h-0.218v3.377l0.245-0.025c1.657 0 2.798-0.236 2.798-1.65-0.027-1.518-1.086-1.701-2.826-1.701z"></path>
<path fill="#ec7133" style="fill: var(--color2, #ec7133)" d="M77.118 22.137l-1.194-2.723h-5.135l-1.168 2.723h-2.389l5.759-12.303h0.76l5.732 12.303h-2.364zM73.342 13.526h-0.054l-1.793 4.24h3.695l-1.848-4.24z"></path>
<path fill="#ec7133" style="fill: var(--color2, #ec7133)" d="M91.732 22.137l-8.041-8.35v8.35h-2.173v-12.303h1.086l8.014 8.403v-8.403h2.174v12.303h-1.060z"></path>
<path fill="#ec7133" style="fill: var(--color2, #ec7133)" d="M102.161 22.478c-3.804 0-6.548-3.011-6.548-6.439 0-3.534 2.744-6.543 6.656-6.543 2.364 0 4.021 0.968 5.678 2.905l-1.63 1.387c-1.277-1.623-2.336-2.355-4.075-2.355-2.663 0-4.401 2.172-4.374 4.606 0 2.356 1.874 4.476 4.293 4.476 1.924 0 3.585-1.308 3.829-2.983h-3.746v-1.938h6.139c0.001 3.927-2.063 6.885-6.222 6.885z"></path>
<path fill="#ec7133" style="fill: var(--color2, #ec7133)" d="M111.236 22.137v-12.303h6.765v1.938h-4.591v2.829h4.591v1.938h-4.591v3.664h4.591v1.938l-6.765-0.003z"></path>
</symbol>

<symbol id="icon-search" viewBox="0 0 32 32">
<path fill="none" stroke="#716f6f" style="stroke: var(--color1, #716f6f)" stroke-linejoin="miter" stroke-linecap="butt" stroke-miterlimit="4" stroke-width="3.2" d="M13.333 22.667c5.155 0 9.333-4.179 9.333-9.333s-4.179-9.333-9.333-9.333c-5.155 0-9.333 4.179-9.333 9.333s4.179 9.333 9.333 9.333z"></path>
<path fill="none" stroke="#716f6f" style="stroke: var(--color1, #716f6f)" stroke-linejoin="round" stroke-linecap="round" stroke-miterlimit="4" stroke-width="3.2" d="M20 20l8 8"></path>
</symbol>

<symbol id="icon-close-menu" viewBox="0 0 32 32">
<path fill="#fff" style="fill: var(--color1, #fff)" d="M12.122 15.354l-12.122 12.122 3.232 3.232 12.122-12.122 12.122 12.122 3.232-3.232-12.122-12.122 12.121-12.121-3.232-3.232-12.121 12.121-12.121-12.121-3.232 3.232 12.121 12.121z"></path>
</symbol>

<symbol id="icon-chevron-bottom" viewBox="0 0 32 32">
<path fill="#bebebe" style="fill: var(--color1, #bebebe)" d="M4.586 10.586c-0.781 0.781-0.781 2.047 0 2.828l10 10c0.781 0.781 2.047 0.781 2.828 0l10-10c0.781-0.781 0.781-2.047 0-2.828s-2.047-0.781-2.828 0l-8.586 8.586-8.586-8.586c-0.781-0.781-2.047-0.781-2.828 0z"></path>
</symbol>

<symbol id="icon-line-hero-1" viewBox="0 0 10496 32">
<path d="M0 0h10496v32h-10496v-32z"></path>
</symbol>

<symbol id="icon-line-gallery" viewBox="0 0 496 32">
<path  d="M0 0h496v32h-496v-32z"></path>
</symbol>

</defs>
</svg>
