<svg aria-hidden="true" style="position: absolute; width: 0; height: 0; overflow: hidden;" version="1.1" xmlns="http://www.w3.org/2000/svg" xmlns:xlink="http://www.w3.org/1999/xlink">
<defs>

<symbol id="icon-burger" viewBox="0 0 45 32">
<path fill="#716f6f" style="fill: var(--color1, #716f6f)" d="M0 0h45.333v5.333h-45.333v-5.333zM0 13.333h45.333v5.333h-45.333v-5.333zM34.667 26.667h-34.667v5.333h34.667v-5.333z"></path>
</symbol>

<symbol id="icon-logo" viewBox="0 0 118 32">
<path fill="#ec7133" style="fill: var(--color2, #ec7133)" d="M1.084 10.323l9.629-9.278c-2.192 0.807-4.183 2.050-5.842 3.649s-2.95 3.517-3.787 5.629z"></path>
<path fill="#ec7133" style="fill: var(--color2, #ec7133)" d="M16.623 0c-0.785 0.001-1.569 0.055-2.347 0.161l-14.108 13.595c-0.111 0.749-0.168 1.504-0.168 2.26 0 0.147 0.007 0.293 0.011 0.44l17.069-16.446c-0.152-0.004-0.304-0.011-0.457-0.011z"></path>
<path fill="#ec7133" style="fill: var(--color2, #ec7133)" d="M21.62 0.737c-0.698-0.211-1.411-0.377-2.132-0.496l-19.238 18.537c0.124 0.695 0.295 1.382 0.514 2.055l20.856-20.096z"></path>
<path fill="#ec7133" style="fill: var(--color2, #ec7133)" d="M25.26 2.33c-0.559-0.325-1.137-0.619-1.731-0.878l-22.025 21.22c0.269 0.573 0.573 1.13 0.911 1.667l22.845-22.009z"></path>
<path fill="#ec7133" style="fill: var(--color2, #ec7133)" d="M28.235 4.562c-0.449-0.421-0.922-0.818-1.418-1.187l-23.316 22.47c0.384 0.477 0.796 0.933 1.233 1.366l23.5-22.649z"></path>
<path fill="#ec7133" style="fill: var(--color2, #ec7133)" d="M30.614 7.372c-0.342-0.513-0.714-1.006-1.114-1.479l-23.389 22.537c0.49 0.386 1.003 0.744 1.536 1.073l22.967-22.131z"></path>
<path fill="#ec7133" style="fill: var(--color2, #ec7133)" d="M32.34 10.807c-0.219-0.616-0.477-1.219-0.773-1.805l-22.225 21.416c0.608 0.284 1.234 0.533 1.874 0.744l21.124-20.355z"></path>
<path fill="#ec7133" style="fill: var(--color2, #ec7133)" d="M33.21 15.067c-0.045-0.759-0.147-1.514-0.304-2.26l-19.613 18.899c0.773 0.151 1.556 0.249 2.343 0.293l17.574-16.933z"></path>
<path fill="#ec7133" style="fill: var(--color2, #ec7133)" d="M32.456 20.896c0.348-1.049 0.583-2.129 0.7-3.224l-14.816 14.276c1.137-0.112 2.258-0.338 3.346-0.674l10.77-10.378z"></path>
<path fill="#ec7133" style="fill: var(--color2, #ec7133)" d="M48.784 22.478c-0.883 0.005-1.758-0.159-2.574-0.482s-1.558-0.799-2.182-1.401c-0.624-0.601-1.118-1.316-1.453-2.103s-0.505-1.63-0.5-2.48c0-3.61 2.962-6.517 6.71-6.517s6.711 2.905 6.711 6.517c0.005 0.851-0.165 1.694-0.501 2.48s-0.83 1.502-1.454 2.103c-0.624 0.601-1.366 1.078-2.182 1.401s-1.691 0.487-2.574 0.482zM48.784 11.432c-2.689 0-4.537 2.067-4.537 4.554 0 2.512 1.848 4.554 4.537 4.554s4.537-2.042 4.537-4.554c0-2.487-1.848-4.554-4.537-4.554z"></path>
<path fill="#ec7133" style="fill: var(--color2, #ec7133)" d="M64.269 22.137l-2.906-5.157h-0.871v5.157h-2.172v-12.303h2.389c2.445 0 5.081 0.603 5.081 3.56 0 1.729-1.141 2.748-2.309 3.168l3.396 5.576h-2.608zM60.71 11.771h-0.218v3.377l0.245-0.025c1.657 0 2.798-0.236 2.798-1.65-0.027-1.518-1.086-1.701-2.826-1.701z"></path>
<path fill="#ec7133" style="fill: var(--color2, #ec7133)" d="M77.118 22.137l-1.194-2.723h-5.135l-1.168 2.723h-2.389l5.759-12.303h0.76l5.732 12.303h-2.364zM73.342 13.526h-0.054l-1.793 4.24h3.695l-1.848-4.24z"></path>
<path fill="#ec7133" style="fill: var(--color2, #ec7133)" d="M91.732 22.137l-8.041-8.35v8.35h-2.173v-12.303h1.086l8.014 8.403v-8.403h2.174v12.303h-1.060z"></path>
<path fill="#ec7133" style="fill: var(--color2, #ec7133)" d="M102.161 22.478c-3.804 0-6.548-3.011-6.548-6.439 0-3.534 2.744-6.543 6.656-6.543 2.364 0 4.021 0.968 5.678 2.905l-1.63 1.387c-1.277-1.623-2.336-2.355-4.075-2.355-2.663 0-4.401 2.172-4.374 4.606 0 2.356 1.874 4.476 4.293 4.476 1.924 0 3.585-1.308 3.829-2.983h-3.746v-1.938h6.139c0.001 3.927-2.063 6.885-6.222 6.885z"></path>
<path fill="#ec7133" style="fill: var(--color2, #ec7133)" d="M111.236 22.137v-12.303h6.765v1.938h-4.591v2.829h4.591v1.938h-4.591v3.664h4.591v1.938l-6.765-0.003z"></path>
</symbol>

<symbol id="icon-search" viewBox="0 0 32 32">
<path fill="none" stroke="#716f6f" style="stroke: var(--color1, #716f6f)" stroke-linejoin="miter" stroke-linecap="butt" stroke-miterlimit="4" stroke-width="3.2" d="M13.333 22.667c5.155 0 9.333-4.179 9.333-9.333s-4.179-9.333-9.333-9.333c-5.155 0-9.333 4.179-9.333 9.333s4.179 9.333 9.333 9.333z"></path>
<path fill="none" stroke="#716f6f" style="stroke: var(--color1, #716f6f)" stroke-linejoin="round" stroke-linecap="round" stroke-miterlimit="4" stroke-width="3.2" d="M20 20l8 8"></path>
</symbol>

<symbol id="icon-close-menu" viewBox="0 0 32 32">
<path fill="#fff" style="fill: var(--color1, #fff)" d="M12.122 15.354l-12.122 12.122 3.232 3.232 12.122-12.122 12.122 12.122 3.232-3.232-12.122-12.122 12.121-12.121-3.232-3.232-12.121 12.121-12.121-12.121-3.232 3.232 12.121 12.121z"></path>
</symbol>

<symbol id="icon-chevron-bottom" viewBox="0 0 32 32">
<path fill="#bebebe" style="fill: var(--color1, #bebebe)" d="M4.586 10.586c-0.781 0.781-0.781 2.047 0 2.828l10 10c0.781 0.781 2.047 0.781 2.828 0l10-10c0.781-0.781 0.781-2.047 0-2.828s-2.047-0.781-2.828 0l-8.586 8.586-8.586-8.586c-0.781-0.781-2.047-0.781-2.828 0z"></path>
</symbol>

<symbol id="icon-line-hero-1" viewBox="0 0 10496 32">
<path d="M0 0h10496v32h-10496v-32z"></path>
</symbol>

<symbol id="icon-line-gallery" viewBox="0 0 496 32">
<path  d="M0 0h496v32h-496v-32z"></path>
</symbol>

<symbol id="icon-about-us-1" viewBox="0 0 33 32">
<path fill="none" stroke="#151716" style="stroke: var(--color1, #151716)" stroke-linejoin="miter" stroke-linecap="round" stroke-miterlimit="4" stroke-width="0.9697" d="M32.655 29.112v-22.625c0-0.667-0.333-1-1-1h-3.334M3.315 12.154v-5.668c0-0.667 0.333-1 1-1h19.004M3.315 12.154l1.324-1.324c0.189-0.189 0.496-0.189 0.686 0l1.991 1.991M3.315 12.154l-2.654 2.654c-0.191 0.191-0.189 0.501 0.004 0.689l2.651 2.595M3.315 18.093v7.731c0 0.667 0.333 1 1 1h7.917M3.315 18.093l8.917 8.731M12.232 26.824l3.743 3.665c0.19 0.186 0.494 0.184 0.682-0.004l3.995-3.995-2.525-2.603M23.32 5.486l4.347-4.658c0.179-0.191 0.477-0.206 0.674-0.034l1.949 1.705c0.202 0.176 0.222 0.483 0.046 0.684l-2.015 2.302M23.32 5.486l-4.334 4.668M28.321 5.486l-6.668 7.335M21.653 12.821l-4.001 1.667M21.653 12.821l-2.667-2.667M17.652 14.488l1.334-4.334M17.652 14.488h7.668M7.316 12.821l-2.271 2.334M7.316 12.821l2.73 2.788M10.046 15.609l-2.396 2.213M10.046 15.609l2.82 2.88M12.866 18.489l-2.216 2M12.866 18.489l2.737 2.795M15.603 21.284l-1.952 1.873M15.603 21.284l2.525 2.603M18.128 23.888l-1.809 1.937"></path>
<path fill="none" stroke="#151716" style="stroke: var(--color1, #151716)" stroke-linejoin="miter" stroke-linecap="round" stroke-miterlimit="4" stroke-width="0.9697" d="M27.654 14.488h1.667"></path>
<path fill="#cacaca" style="fill: var(--color2, #cacaca)" d="M30.833 31.264c2.515 0 2.344-4.447 0-4.447h-3.389v4.447h3.389z"></path>
<path fill="none" stroke="#151716" style="stroke: var(--color1, #151716)" stroke-linejoin="miter" stroke-linecap="butt" stroke-miterlimit="4" stroke-width="0.9697" d="M20.319 26.818c2.63 0 5.367 0 7.125 0M27.444 26.818c1.045 0 2.652 0 3.389 0 2.344 0 2.515 4.447 0 4.447h-3.389v-4.447z"></path>
</symbol>

<symbol id="icon-about-us-2" viewBox="0 0 32 32">
<path d="M16 16.982c0.028-0.003 0.054-0.008 0.079-0.015l-0.003 0.001c0.467 0.129 1.004 0.204 1.558 0.204h0c0.003 0 0.007 0 0.011 0 3.372 0 6.106-2.734 6.106-6.106 0-0.565-0.077-1.112-0.22-1.631l0.010 0.043c-0.046-0.168-0.176-0.297-0.34-0.342l-0.003-0.001c-0.466-0.128-1.002-0.201-1.555-0.201-0.938 0-1.826 0.211-2.62 0.588l0.037-0.016c0.264-0.676 0.417-1.458 0.417-2.276 0-2.374-1.287-4.448-3.202-5.561l-0.031-0.016c-0.070-0.041-0.153-0.065-0.243-0.065s-0.173 0.024-0.245 0.066l0.002-0.001c-1.951 1.127-3.244 3.204-3.244 5.582 0 0.814 0.151 1.592 0.427 2.309l-0.015-0.044c-0.754-0.358-1.638-0.566-2.571-0.566-0.553 0-1.088 0.073-1.597 0.211l0.043-0.010c-0.168 0.046-0.298 0.175-0.343 0.339l-0.001 0.003c-0.132 0.475-0.209 1.020-0.209 1.583 0 3.375 2.736 6.111 6.111 6.111 0.556 0 1.095-0.074 1.607-0.213l-0.043 0.010c0.021 0.007 0.047 0.012 0.073 0.015l0.002 0zM22.67 10.007c0.070 0.318 0.11 0.683 0.11 1.058 0 2.835-2.299 5.134-5.134 5.134-0.159 0-0.315-0.007-0.47-0.021l0.020 0.001 3.591-3.598c0.088-0.088 0.142-0.209 0.142-0.343 0-0.268-0.218-0.486-0.486-0.486-0.134 0-0.256 0.054-0.344 0.143l-3.592 3.599c-0.013-0.138-0.021-0.298-0.021-0.46 0-2.836 2.299-5.134 5.134-5.134 0.371 0 0.733 0.039 1.082 0.114l-0.034-0.006zM16 2.643c1.518 0.995 2.506 2.689 2.506 4.613 0 1.717-0.787 3.25-2.019 4.258l-0.010 0.008v-5.565c-0.004-0.265-0.22-0.478-0.485-0.478s-0.481 0.213-0.485 0.478v5.563c-1.237-1.016-2.020-2.546-2.020-4.259 0-1.928 0.992-3.624 2.493-4.606l0.021-0.013zM10.726 14.697c-0.93-0.932-1.505-2.219-1.505-3.64 0-0.372 0.039-0.734 0.114-1.084l-0.006 0.034c0.313-0.068 0.673-0.107 1.042-0.107 1.42 0 2.706 0.574 3.638 1.503l-0-0c0.926 0.931 1.498 2.214 1.498 3.631 0 0.096-0.003 0.192-0.008 0.287l0.001-0.013-3.408-3.414c-0.088-0.088-0.209-0.143-0.344-0.143-0.268 0-0.486 0.217-0.486 0.486 0 0.134 0.054 0.255 0.142 0.343l3.568 3.574c-0.186 0.024-0.402 0.038-0.621 0.038-1.415 0-2.696-0.571-3.626-1.496l0 0z"></path>
<path d="M8.83 30.412h6.282c0 0 0 0 0.001 0 0.268 0 0.485-0.217 0.485-0.485 0-0 0-0 0-0.001v0-2.649c0-0.007 0-0.016 0-0.025 0-2.685-1.087-5.117-2.844-6.878l0 0-3.468-3.494c-0.314-0.316-0.748-0.512-1.228-0.512-0.267 0-0.52 0.060-0.745 0.168l0.010-0.005v-6.48c0-0.004 0-0.009 0-0.013 0-0.995-0.807-1.802-1.802-1.802s-1.802 0.807-1.802 1.802c0 0.005 0 0.009 0 0.014v-0.001 7.451c0.001 1.069 0.271 2.075 0.746 2.953l-0.016-0.033 3.896 7.287v2.216c0 0 0 0.001 0 0.001 0 0.268 0.217 0.485 0.485 0.485 0 0 0.001 0 0.001 0h-0zM5.306 19.966c-0.388-0.713-0.616-1.561-0.617-2.462v-7.451c0.005-0.455 0.375-0.822 0.832-0.822s0.826 0.367 0.832 0.822v7.741c-0.017 0.092-0.027 0.198-0.027 0.306 0 0.482 0.198 0.917 0.517 1.23l0 0 3.394 3.352c0.088 0.092 0.212 0.149 0.35 0.149 0.268 0 0.485-0.217 0.485-0.485 0-0.139-0.059-0.265-0.153-0.353l-0-0-3.392-3.353c-0.139-0.138-0.226-0.329-0.226-0.54 0-0.407 0.32-0.739 0.723-0.758l0.002-0c0.010-0 0.021-0.001 0.033-0.001 0.211 0 0.402 0.086 0.54 0.224v0l3.468 3.495c1.583 1.587 2.563 3.778 2.563 6.197 0 0.008 0 0.015-0 0.023v-0.001 2.164h-5.311v-1.852c-0-0.084-0.021-0.163-0.058-0.232l0.001 0.003z"></path>
<path d="M16.889 30.412h6.281c0 0 0 0 0.001 0 0.268 0 0.485-0.217 0.485-0.485 0-0 0-0 0-0.001v0-2.217l3.896-7.287c0.459-0.846 0.729-1.851 0.73-2.92v-7.451c0-0.004 0-0.009 0-0.013 0-0.995-0.807-1.802-1.802-1.802s-1.802 0.807-1.802 1.802c0 0.005 0 0.009 0 0.014v-0.001 6.479c-0.192-0.092-0.417-0.151-0.654-0.162l-0.004-0c-0.019-0.001-0.041-0.001-0.063-0.001-0.484 0-0.923 0.195-1.242 0.511l0-0-3.467 3.494c-1.757 1.761-2.844 4.192-2.844 6.877 0 0.009 0 0.019 0 0.028v-0.001 2.649c0 0 0 0 0 0 0 0.268 0.217 0.485 0.485 0.485 0.001 0 0.001 0 0.002 0h-0zM17.374 27.277c-0-0.007-0-0.015-0-0.023 0-2.419 0.979-4.61 2.563-6.197l-0 0 3.467-3.495c0.137-0.137 0.327-0.222 0.536-0.222 0.419 0 0.759 0.34 0.759 0.759 0 0.21-0.085 0.4-0.223 0.537v0l-3.394 3.352c-0.094 0.089-0.152 0.214-0.152 0.353 0 0.268 0.217 0.485 0.485 0.485 0.137 0 0.26-0.057 0.348-0.148l0-0 3.395-3.352c0.319-0.313 0.517-0.749 0.517-1.231 0-0.108-0.010-0.214-0.029-0.316l0.002 0.011v-7.74c0.005-0.455 0.375-0.822 0.832-0.822s0.826 0.367 0.832 0.822v7.451c-0.001 0.902-0.229 1.75-0.631 2.49l0.014-0.028-3.952 7.395c-0.036 0.066-0.057 0.145-0.057 0.229v0 1.852h-5.311z"></path>
</symbol>


</defs>
</svg>
